<svg width="574" height="401" viewBox="0 0 574 401" fill="none" xmlns="http://www.w3.org/2000/svg">
<path d="M432.544 249.131C430.52 266.474 426.305 280.397 420.525 291.503C412.833 306.299 399.673 312.262 387.917 318.5C384.52 320.298 380.989 321.832 377.355 323.088C355.964 330.498 332.022 328.533 313.213 324.619C300.023 321.872 286.633 320.182 273.173 319.565C269.336 319.395 265.493 319.308 261.645 319.306C255.714 319.306 148.913 321.338 122.907 268.766C116.489 255.799 112.09 239.959 110.509 220.646C106.034 166.057 130.623 130.202 162.337 106.764C222.335 62.4145 304.563 64.272 363.684 109.773C403.058 140.079 439.924 185.947 432.544 249.131Z" fill="#3F3D56"/>
<path d="M355.521 199.985C338.876 187.561 312.81 175.81 283.998 167.746C257.769 160.404 232.183 156.86 211.953 157.781L211.849 155.433C232.318 154.516 258.152 158.092 284.633 165.498C313.712 173.622 340.065 185.512 356.93 198.108L355.521 199.985Z" fill="#F2F2F2"/>
<path d="M353.792 209.557C353.807 220.566 351.495 231.454 347.006 241.509C346.631 242.354 346.241 243.188 345.837 244.012C339.371 257.237 329.316 268.383 316.816 276.179C304.316 283.975 289.874 288.108 275.137 288.106C231.695 288.106 196.477 252.937 196.477 209.557C196.477 207.739 196.54 205.936 196.665 204.147C196.723 203.236 196.799 202.331 196.892 201.433C200.964 161.871 234.442 131.011 275.129 131.011C318.574 131.011 353.792 166.176 353.792 209.557Z" fill="#428DFC"/>
<path opacity="0.1" d="M347.011 241.509C346.636 242.354 346.246 243.188 345.841 244.012C343.542 244.264 341.122 244.445 338.58 244.554C336.481 244.65 334.313 244.698 332.102 244.698C312.786 244.698 289.543 241.138 265.793 234.489C239.328 227.083 215.386 216.719 198.373 205.311C197.791 204.912 197.224 204.514 196.665 204.147C196.724 203.236 196.799 202.331 196.893 201.433C197.795 202.076 198.726 202.719 199.687 203.362C216.5 214.631 240.202 224.887 266.435 232.225C289.97 238.814 312.998 242.354 332.106 242.354C334.288 242.354 336.417 242.307 338.493 242.214C341.5 242.073 344.339 241.838 347.011 241.509Z" fill="black"/>
<path d="M332.106 242.816C312.794 242.816 289.543 239.256 265.796 232.608C239.328 225.213 215.386 214.85 198.385 203.429C181.014 191.786 172.871 180.31 175.449 171.118C178.028 161.926 190.961 156.35 211.861 155.417L211.965 157.765C202.205 158.203 194.254 159.65 188.326 162.07C182.399 164.489 178.826 167.742 177.708 171.752C176.591 175.762 177.936 180.402 181.728 185.532C185.52 190.662 191.575 196.039 199.691 201.476C216.503 212.749 240.206 223.001 266.439 230.339C289.99 236.928 313.006 240.46 332.102 240.46C334.281 240.46 336.41 240.414 338.488 240.321C348.248 239.886 356.199 238.435 362.127 236.016C368.055 233.596 371.607 230.343 372.733 226.333C374.757 219.131 368.645 209.771 355.533 199.981L356.942 198.1C363.692 203.138 368.685 208.105 371.791 212.848C375.12 217.947 376.182 222.694 374.984 226.955C372.405 236.147 359.477 241.724 338.576 242.66C336.497 242.752 334.313 242.816 332.106 242.816Z" fill="#F2F2F2"/>
<path d="M277.216 116.844C277.714 116.844 278.118 116.44 278.118 115.943C278.118 115.445 277.714 115.042 277.216 115.042C276.718 115.042 276.314 115.445 276.314 115.943C276.314 116.44 276.718 116.844 277.216 116.844Z" fill="#F2F2F2"/>
<path d="M157.638 155.254C158.137 155.254 158.541 154.851 158.541 154.353C158.541 153.855 158.137 153.452 157.638 153.452C157.14 153.452 156.736 153.855 156.736 154.353C156.736 154.851 157.14 155.254 157.638 155.254Z" fill="#F2F2F2"/>
<path d="M154.333 215.858C154.831 215.858 155.235 215.455 155.235 214.958C155.235 214.46 154.831 214.057 154.333 214.057C153.835 214.057 153.431 214.46 153.431 214.958C153.431 215.455 153.835 215.858 154.333 215.858Z" fill="#F2F2F2"/>
<path d="M338.205 121.946C338.538 121.946 338.808 121.677 338.808 121.344C338.808 121.012 338.538 120.742 338.205 120.742C337.872 120.742 337.603 121.012 337.603 121.344C337.603 121.677 337.872 121.946 338.205 121.946Z" fill="#F2F2F2"/>
<path d="M410.614 206.559C410.946 206.559 411.216 206.29 411.216 205.957C411.216 205.625 410.946 205.355 410.614 205.355C410.281 205.355 410.011 205.625 410.011 205.957C410.011 206.29 410.281 206.559 410.614 206.559Z" fill="#F2F2F2"/>
<path d="M377.567 178.955C377.9 178.955 378.169 178.685 378.169 178.353C378.169 178.02 377.9 177.751 377.567 177.751C377.234 177.751 376.964 178.02 376.964 178.353C376.964 178.685 377.234 178.955 377.567 178.955Z" fill="#F2F2F2"/>
<path d="M212.021 135.447C212.354 135.447 212.623 135.177 212.623 134.845C212.623 134.513 212.354 134.243 212.021 134.243C211.688 134.243 211.418 134.513 211.418 134.845C211.418 135.177 211.688 135.447 212.021 135.447Z" fill="#F2F2F2"/>
<path d="M375.463 198.46C375.796 198.46 376.066 198.19 376.066 197.858C376.066 197.525 375.796 197.256 375.463 197.256C375.13 197.256 374.86 197.525 374.86 197.858C374.86 198.19 375.13 198.46 375.463 198.46Z" fill="#F2F2F2"/>
<path d="M161.546 258.764C161.879 258.764 162.149 258.495 162.149 258.162C162.149 257.83 161.879 257.561 161.546 257.561C161.213 257.561 160.943 257.83 160.943 258.162C160.943 258.495 161.213 258.764 161.546 258.764Z" fill="#F2F2F2"/>
<path d="M197.3 283.367C197.632 283.367 197.902 283.097 197.902 282.765C197.902 282.433 197.632 282.163 197.3 282.163C196.967 282.163 196.697 282.433 196.697 282.765C196.697 283.097 196.967 283.367 197.3 283.367Z" fill="#F2F2F2"/>
<path d="M249.275 90.8193H248.445V89.9902H248.002V90.8193H247.171V91.2658H248.002V92.0909H248.445V91.2658H249.275V90.8193Z" fill="#F2F2F2"/>
<path d="M338.808 294.839H337.977V294.01H337.534V294.839H336.704V295.281H337.534V296.11H337.977V295.281H338.808V294.839Z" fill="#F2F2F2"/>
<path d="M394.392 282.538H393.561V281.709H393.114V282.538H392.288V282.981H393.114V283.81H393.561V282.981H394.392V282.538Z" fill="#F2F2F2"/>
<path d="M276.314 154.652C279.965 154.652 282.924 151.697 282.924 148.051C282.924 144.406 279.965 141.45 276.314 141.45C272.664 141.45 269.704 144.406 269.704 148.051C269.704 151.697 272.664 154.652 276.314 154.652Z" fill="#3F3D56"/>
<path d="M225.54 202.96C229.191 202.96 232.151 200.004 232.151 196.359C232.151 192.713 229.191 189.758 225.54 189.758C221.89 189.758 218.93 192.713 218.93 196.359C218.93 200.004 221.89 202.96 225.54 202.96Z" fill="#3F3D56"/>
<path d="M298.548 269.264C302.198 269.264 305.158 266.309 305.158 262.663C305.158 259.018 302.198 256.062 298.548 256.062C294.897 256.062 291.938 259.018 291.938 262.663C291.938 266.309 294.897 269.264 298.548 269.264Z" fill="#3F3D56"/>
<path d="M276.314 213.16C279.965 213.16 282.924 210.205 282.924 206.559C282.924 202.913 279.965 199.958 276.314 199.958C272.664 199.958 269.704 202.913 269.704 206.559C269.704 210.205 272.664 213.16 276.314 213.16Z" fill="#3F3D56"/>
<path d="M228.846 249.462C232.496 249.462 235.456 246.506 235.456 242.861C235.456 239.215 232.496 236.26 228.846 236.26C225.195 236.26 222.235 239.215 222.235 242.861C222.235 246.506 225.195 249.462 228.846 249.462Z" fill="#3F3D56"/>
<path d="M311.768 177.756C315.419 177.756 318.379 174.8 318.379 171.155C318.379 167.509 315.419 164.554 311.768 164.554C308.118 164.554 305.158 167.509 305.158 171.155C305.158 174.8 308.118 177.756 311.768 177.756Z" fill="#3F3D56"/>
<path d="M333.698 222.459C337.349 222.459 340.308 219.503 340.308 215.858C340.308 212.212 337.349 209.257 333.698 209.257C330.047 209.257 327.088 212.212 327.088 215.858C327.088 219.503 330.047 222.459 333.698 222.459Z" fill="#3F3D56"/>
<path d="M276.314 186.457C281.127 186.457 285.028 182.561 285.028 177.755C285.028 172.95 281.127 169.054 276.314 169.054C271.502 169.054 267.601 172.95 267.601 177.755C267.601 182.561 271.502 186.457 276.314 186.457Z" fill="white"/>
<path d="M276.314 165.155C273.047 165.155 269.914 166.451 267.604 168.758C265.294 171.065 263.996 174.194 263.996 177.456C263.996 184.233 276.314 206.555 276.314 206.555C276.314 206.555 288.633 184.233 288.633 177.456C288.633 175.841 288.315 174.241 287.696 172.748C287.077 171.256 286.17 169.899 285.026 168.757C283.882 167.615 282.524 166.709 281.029 166.091C279.534 165.473 277.932 165.155 276.314 165.155ZM276.314 183.455C275.185 183.455 274.082 183.121 273.143 182.495C272.204 181.868 271.473 180.978 271.041 179.937C270.609 178.895 270.496 177.749 270.716 176.643C270.936 175.538 271.48 174.522 272.278 173.725C273.076 172.928 274.093 172.385 275.201 172.165C276.308 171.945 277.456 172.058 278.499 172.489C279.542 172.921 280.433 173.651 281.06 174.588C281.688 175.526 282.022 176.628 282.022 177.755C282.022 178.504 281.875 179.245 281.588 179.937C281.301 180.628 280.881 181.257 280.351 181.786C279.82 182.315 279.191 182.735 278.499 183.022C277.806 183.308 277.064 183.455 276.314 183.455Z" fill="#FFC74C"/>
<path d="M228.846 223.659C233.658 223.659 237.559 219.763 237.559 214.957C237.559 210.152 233.658 206.256 228.846 206.256C224.033 206.256 220.132 210.152 220.132 214.957C220.132 219.763 224.033 223.659 228.846 223.659Z" fill="white"/>
<path d="M228.846 202.357C225.579 202.357 222.445 203.653 220.135 205.96C217.825 208.267 216.527 211.396 216.527 214.658C216.527 221.435 228.846 243.757 228.846 243.757C228.846 243.757 241.164 221.435 241.164 214.658C241.164 211.396 239.866 208.267 237.556 205.96C235.246 203.653 232.113 202.357 228.846 202.357ZM228.846 220.658C227.717 220.658 226.613 220.323 225.674 219.697C224.736 219.071 224.004 218.18 223.572 217.139C223.14 216.097 223.027 214.951 223.247 213.845C223.467 212.74 224.011 211.724 224.809 210.927C225.608 210.13 226.625 209.587 227.732 209.367C228.839 209.147 229.987 209.26 231.03 209.691C232.073 210.123 232.964 210.853 233.592 211.791C234.219 212.728 234.554 213.83 234.554 214.957C234.554 216.469 233.952 217.919 232.882 218.988C231.811 220.057 230.359 220.658 228.846 220.658Z" fill="#FFC74C"/>
<path d="M333.698 196.657C338.511 196.657 342.412 192.761 342.412 187.956C342.412 183.15 338.511 179.254 333.698 179.254C328.886 179.254 324.984 183.15 324.984 187.956C324.984 192.761 328.886 196.657 333.698 196.657Z" fill="white"/>
<path d="M333.702 175.355C330.435 175.355 327.302 176.651 324.992 178.958C322.682 181.265 321.384 184.394 321.384 187.657C321.384 194.433 333.702 216.755 333.702 216.755C333.702 216.755 346.02 194.433 346.02 187.657C346.021 186.041 345.703 184.441 345.084 182.948C344.465 181.456 343.558 180.1 342.414 178.957C341.27 177.815 339.911 176.909 338.417 176.291C336.922 175.673 335.32 175.355 333.702 175.355ZM333.702 193.656C332.573 193.655 331.47 193.32 330.532 192.693C329.594 192.066 328.863 191.176 328.431 190.134C328 189.092 327.887 187.946 328.108 186.841C328.329 185.736 328.873 184.72 329.671 183.923C330.47 183.127 331.487 182.584 332.594 182.365C333.701 182.145 334.849 182.258 335.891 182.69C336.934 183.121 337.825 183.852 338.452 184.789C339.079 185.726 339.414 186.828 339.414 187.955C339.414 188.704 339.266 189.446 338.979 190.138C338.692 190.83 338.271 191.458 337.741 191.987C337.21 192.517 336.581 192.937 335.888 193.223C335.195 193.509 334.452 193.656 333.702 193.656Z" fill="#FFC74C"/>
<path d="M276.314 127.953C281.127 127.953 285.028 124.057 285.028 119.251C285.028 114.446 281.127 110.55 276.314 110.55C271.502 110.55 267.601 114.446 267.601 119.251C267.601 124.057 271.502 127.953 276.314 127.953Z" fill="white"/>
<path d="M276.314 106.647C273.047 106.647 269.914 107.943 267.604 110.25C265.294 112.557 263.996 115.686 263.996 118.949C263.996 125.725 276.314 148.047 276.314 148.047C276.314 148.047 288.633 125.725 288.633 118.949C288.633 115.686 287.335 112.557 285.025 110.25C282.715 107.943 279.581 106.647 276.314 106.647ZM276.314 124.952C275.184 124.952 274.079 124.618 273.139 123.992C272.199 123.365 271.467 122.475 271.034 121.432C270.601 120.39 270.488 119.242 270.708 118.136C270.928 117.029 271.472 116.012 272.271 115.214C273.07 114.416 274.089 113.873 275.197 113.653C276.305 113.433 277.454 113.546 278.498 113.978C279.542 114.411 280.434 115.142 281.061 116.081C281.689 117.02 282.023 118.123 282.022 119.251C282.022 120.763 281.421 122.213 280.351 123.282C279.28 124.351 277.828 124.952 276.314 124.952Z" fill="#FFC74C"/>
<path d="M298.548 243.462C303.36 243.462 307.262 239.566 307.262 234.76C307.262 229.954 303.36 226.059 298.548 226.059C293.735 226.059 289.834 229.954 289.834 234.76C289.834 239.566 293.735 243.462 298.548 243.462Z" fill="white"/>
<path d="M298.548 222.16C296.93 222.16 295.328 222.478 293.834 223.097C292.339 223.715 290.981 224.621 289.837 225.763C288.694 226.905 287.786 228.261 287.167 229.754C286.548 231.246 286.229 232.846 286.229 234.461C286.229 241.238 298.548 263.56 298.548 263.56C298.548 263.56 310.866 241.238 310.866 234.461C310.866 231.199 309.568 228.07 307.258 225.763C304.948 223.456 301.815 222.16 298.548 222.16ZM298.548 240.46C297.419 240.46 296.315 240.126 295.377 239.5C294.438 238.873 293.706 237.983 293.274 236.941C292.842 235.9 292.729 234.754 292.949 233.648C293.17 232.542 293.713 231.527 294.512 230.73C295.31 229.932 296.327 229.39 297.434 229.17C298.541 228.95 299.689 229.063 300.732 229.494C301.775 229.925 302.667 230.656 303.294 231.593C303.921 232.531 304.256 233.633 304.256 234.76C304.256 236.272 303.654 237.722 302.584 238.791C301.513 239.86 300.062 240.46 298.548 240.46Z" fill="#FFC74C"/>
<path d="M225.54 176.556C230.353 176.556 234.254 172.66 234.254 167.854C234.254 163.048 230.353 159.152 225.54 159.152C220.728 159.152 216.827 163.048 216.827 167.854C216.827 172.66 220.728 176.556 225.54 176.556Z" fill="white"/>
<path d="M225.529 155.254C223.911 155.253 222.309 155.571 220.814 156.189C219.319 156.807 217.961 157.713 216.817 158.856C215.673 159.998 214.766 161.354 214.147 162.847C213.528 164.34 213.21 165.939 213.21 167.555C213.21 174.331 225.529 196.653 225.529 196.653C225.529 196.653 237.847 174.331 237.847 167.555C237.847 164.293 236.549 161.164 234.239 158.857C231.929 156.55 228.796 155.254 225.529 155.254ZM225.529 173.554C224.4 173.554 223.296 173.22 222.357 172.593C221.419 171.967 220.687 171.077 220.255 170.035C219.823 168.994 219.71 167.848 219.93 166.742C220.151 165.636 220.694 164.621 221.492 163.823C222.291 163.026 223.308 162.483 224.415 162.263C225.522 162.043 226.67 162.156 227.713 162.588C228.756 163.019 229.648 163.75 230.275 164.687C230.902 165.624 231.237 166.727 231.237 167.854C231.237 169.366 230.635 170.816 229.565 171.885C228.494 172.953 227.043 173.554 225.529 173.554Z" fill="#FFC74C"/>
<path d="M311.768 152.253C316.581 152.253 320.482 148.357 320.482 143.551C320.482 138.745 316.581 134.85 311.768 134.85C306.956 134.85 303.055 138.745 303.055 143.551C303.055 148.357 306.956 152.253 311.768 152.253Z" fill="white"/>
<path d="M311.768 130.951C308.501 130.951 305.368 132.247 303.058 134.554C300.748 136.861 299.45 139.99 299.45 143.252C299.45 150.029 311.768 172.351 311.768 172.351C311.768 172.351 324.087 150.029 324.087 143.252C324.087 139.99 322.789 136.861 320.479 134.554C318.169 132.247 315.035 130.951 311.768 130.951ZM311.768 149.251C310.64 149.251 309.536 148.917 308.597 148.291C307.659 147.664 306.927 146.774 306.495 145.733C306.063 144.691 305.95 143.545 306.17 142.439C306.39 141.333 306.934 140.318 307.732 139.521C308.531 138.723 309.548 138.181 310.655 137.961C311.762 137.741 312.91 137.854 313.953 138.285C314.996 138.716 315.887 139.447 316.515 140.384C317.142 141.322 317.477 142.424 317.477 143.551C317.477 145.063 316.875 146.513 315.805 147.582C314.734 148.651 313.282 149.251 311.768 149.251Z" fill="#FFC74C"/>
<path d="M78.4917 212.893L127.88 190.2" stroke="#535461" stroke-miterlimit="10" stroke-dasharray="12.58 12.58"/>
<path d="M379.167 125.155L380.245 124.139" stroke="#535461" stroke-miterlimit="10"/>
<path d="M382.5 122.006L421.989 84.6924" stroke="#535461" stroke-miterlimit="10" stroke-dasharray="12.58 12.58"/>
<path d="M423.119 83.6239L424.193 82.6074" stroke="#535461" stroke-miterlimit="10"/>
<g opacity="0.5">
<path opacity="0.5" d="M427.734 120.679C445.363 120.679 459.655 106.408 459.655 88.8025C459.655 71.1975 445.363 56.9258 427.734 56.9258C410.104 56.9258 395.812 71.1975 395.812 88.8025C395.812 106.408 410.104 120.679 427.734 120.679Z" fill="url(#paint0_linear)"/>
</g>
<path d="M427.797 119.802C445.055 119.802 459.044 105.832 459.044 88.5986C459.044 71.3656 445.055 57.3955 427.797 57.3955C410.54 57.3955 396.551 71.3656 396.551 88.5986C396.551 105.832 410.54 119.802 427.797 119.802Z" fill="#F5F5F5"/>
<path d="M427.822 119.925C433.923 119.93 439.892 118.145 444.986 114.791C443.836 108.505 439.453 108.15 439.453 108.15H415.292C415.292 108.15 411.157 108.489 409.863 114.269C415.121 117.96 421.394 119.936 427.822 119.925Z" fill="#6C63FF"/>
<path d="M427.495 103.001C435.823 103.001 442.575 96.2583 442.575 87.9413C442.575 79.6242 435.823 72.8818 427.495 72.8818C419.166 72.8818 412.414 79.6242 412.414 87.9413C412.414 96.2583 419.166 103.001 427.495 103.001Z" fill="#333333"/>
<path opacity="0.1" d="M422.62 100.485H432.296V108.701C432.296 109.269 432.184 109.831 431.966 110.356C431.749 110.88 431.43 111.357 431.027 111.759C430.625 112.16 430.148 112.479 429.622 112.696C429.097 112.914 428.534 113.026 427.965 113.026H426.963C426.394 113.026 425.831 112.914 425.306 112.696C424.78 112.479 424.303 112.16 423.901 111.759C423.498 111.357 423.179 110.88 422.962 110.356C422.744 109.831 422.632 109.269 422.632 108.701V100.485H422.62Z" fill="black"/>
<path d="M423.45 100.126H431.462C431.681 100.126 431.892 100.213 432.047 100.367C432.203 100.522 432.291 100.732 432.292 100.951V108.349C432.292 109.496 431.836 110.596 431.023 111.407C430.211 112.219 429.11 112.674 427.961 112.674H426.959C426.39 112.675 425.827 112.564 425.301 112.348C424.775 112.132 424.297 111.814 423.894 111.413C423.491 111.012 423.171 110.536 422.953 110.012C422.734 109.487 422.621 108.925 422.62 108.357V100.951C422.62 100.732 422.707 100.522 422.862 100.368C423.017 100.213 423.227 100.126 423.446 100.126H423.45Z" fill="#FDB797"/>
<path opacity="0.1" d="M422.645 104.133C425.759 105.295 429.188 105.303 432.308 104.157V102.961H422.645V104.133Z" fill="black"/>
<path d="M427.495 104.774C435.144 104.774 441.346 98.5811 441.346 90.9421C441.346 83.303 435.144 77.1104 427.495 77.1104C419.845 77.1104 413.644 83.303 413.644 90.9421C413.644 98.5811 419.845 104.774 427.495 104.774Z" fill="#FDB797"/>
<path opacity="0.1" d="M417.627 78.3624C417.627 78.3624 423.463 90.1971 439.932 83.3211L436.096 77.33L429.311 74.8945L417.627 78.3624Z" fill="black"/>
<path d="M417.627 78.1909C417.627 78.1909 423.463 90.0256 439.932 83.1496L436.096 77.1425L429.311 74.707L417.627 78.1909Z" fill="#333333"/>
<path d="M417.576 77.3894C417.973 76.1706 418.657 75.0648 419.571 74.1647C422.286 71.4781 426.756 70.9081 429.056 67.8428C429.291 68.2548 429.354 68.7432 429.23 69.2011C429.105 69.6591 428.805 70.0493 428.393 70.2862L428.233 70.366C430.425 70.366 432.971 70.1587 434.221 68.3729C434.527 69.0859 434.625 69.871 434.502 70.6371C434.38 71.4032 434.043 72.1191 433.53 72.7018C435.474 72.7895 437.55 74.1089 437.678 76.0501C437.761 77.3416 436.947 78.5653 435.885 79.3067C434.779 79.9927 433.549 80.4558 432.265 80.67C428.545 81.4672 415.161 84.9032 417.576 77.3894Z" fill="#333333"/>
<path d="M413.635 93.3458C414.347 93.3458 414.924 92.2643 414.924 90.9302C414.924 89.5961 414.347 88.5146 413.635 88.5146C412.923 88.5146 412.346 89.5961 412.346 90.9302C412.346 92.2643 412.923 93.3458 413.635 93.3458Z" fill="#FDB797"/>
<path d="M441.346 93.3458C442.058 93.3458 442.635 92.2643 442.635 90.9302C442.635 89.5961 442.058 88.5146 441.346 88.5146C440.634 88.5146 440.057 89.5961 440.057 90.9302C440.057 92.2643 440.634 93.3458 441.346 93.3458Z" fill="#FDB797"/>
<path d="M414.441 281.441L415.958 282.801" stroke="#535461" stroke-miterlimit="10"/>
<path d="M419.1 285.619L474.097 334.919" stroke="#535461" stroke-miterlimit="10" stroke-dasharray="12.44 12.44"/>
<path d="M475.67 336.33L477.183 337.685" stroke="#535461" stroke-miterlimit="10"/>
<g opacity="0.5">
<path opacity="0.5" d="M479.836 374.723C504.073 374.723 523.721 355.103 523.721 330.9C523.721 306.697 504.073 287.077 479.836 287.077C455.6 287.077 435.952 306.697 435.952 330.9C435.952 355.103 455.6 374.723 479.836 374.723Z" fill="url(#paint1_linear)"/>
</g>
<path d="M479.837 373.56C503.562 373.56 522.795 354.354 522.795 330.662C522.795 306.97 503.562 287.764 479.837 287.764C456.112 287.764 436.879 306.97 436.879 330.662C436.879 354.354 456.112 373.56 479.837 373.56Z" fill="#F5F5F5"/>
<path d="M503.595 334.524C503.595 350.321 493.269 367.911 480.539 367.911C467.81 367.911 457.483 350.317 457.483 334.524C457.483 318.731 467.806 310.707 480.539 310.707C493.273 310.707 503.595 318.723 503.595 334.524Z" fill="#FDD835"/>
<path d="M479.956 373.688C488.351 373.7 496.564 371.245 503.571 366.628C501.974 357.99 495.987 357.496 495.987 357.496H462.784C462.784 357.496 457.076 357.951 455.296 365.923C462.517 370.989 471.131 373.702 479.956 373.688Z" fill="#6C63FF"/>
<path opacity="0.1" d="M472.815 346.961H486.1V358.261C486.099 359.838 485.471 361.35 484.354 362.464C483.237 363.579 481.723 364.205 480.144 364.205H478.767C477.189 364.205 475.675 363.579 474.559 362.464C473.442 361.349 472.815 359.838 472.815 358.261V346.961Z" fill="black"/>
<path d="M473.966 346.471H484.986C485.287 346.471 485.576 346.59 485.789 346.802C486.003 347.014 486.123 347.302 486.124 347.603V357.771C486.124 359.349 485.497 360.861 484.38 361.977C483.263 363.092 481.748 363.718 480.169 363.718H478.791C477.213 363.717 475.699 363.09 474.583 361.975C473.467 360.86 472.84 359.348 472.84 357.771V347.587C472.844 347.291 472.964 347.008 473.175 346.799C473.385 346.591 473.669 346.473 473.966 346.471Z" fill="#FDB797"/>
<path opacity="0.1" d="M472.835 351.971C477.117 353.571 481.831 353.585 486.123 352.011V350.377H472.835V351.971Z" fill="black"/>
<path d="M479.505 352.856C490.021 352.856 498.545 344.344 498.545 333.843C498.545 323.342 490.021 314.829 479.505 314.829C468.989 314.829 460.465 323.342 460.465 333.843C460.465 344.344 468.989 352.856 479.505 352.856Z" fill="#FDB797"/>
<path d="M460.856 336.35C461.835 336.35 462.629 334.865 462.629 333.033C462.629 331.202 461.835 329.717 460.856 329.717C459.877 329.717 459.084 331.202 459.084 333.033C459.084 334.865 459.877 336.35 460.856 336.35Z" fill="#FDB797"/>
<path d="M498.055 336.35C499.033 336.35 499.827 334.865 499.827 333.033C499.827 331.202 499.033 329.717 498.055 329.717C497.076 329.717 496.282 331.202 496.282 333.033C496.282 334.865 497.076 336.35 498.055 336.35Z" fill="#FDB797"/>
<path opacity="0.1" d="M462.633 323.53C462.633 323.53 473.41 338.251 498.087 333.22C498.087 333.22 500.841 329.872 494.131 319.584C487.421 309.296 468.74 310.97 462.633 323.53Z" fill="black"/>
<path d="M462.633 323.292C462.633 323.292 473.41 338.004 498.087 332.982C498.087 332.982 500.841 329.634 494.131 319.345C487.421 309.057 468.74 310.731 462.633 323.292Z" fill="#FDD835"/>
<g opacity="0.5">
<path opacity="0.5" d="M312.626 58.9507C321.182 58.9507 328.118 52.0246 328.118 43.4807C328.118 34.9369 321.182 28.0107 312.626 28.0107C304.071 28.0107 297.135 34.9369 297.135 43.4807C297.135 52.0246 304.071 58.9507 312.626 58.9507Z" fill="url(#paint2_linear)"/>
</g>
<path d="M312.626 58.5402C321.001 58.5402 327.79 51.7604 327.79 43.397C327.79 35.0337 321.001 28.2539 312.626 28.2539C304.251 28.2539 297.462 35.0337 297.462 43.397C297.462 51.7604 304.251 58.5402 312.626 58.5402Z" fill="#F5F5F5"/>
<path d="M312.671 58.5949C315.634 58.5992 318.532 57.7328 321.005 56.1036C320.446 53.0543 318.319 52.8789 318.319 52.8789H306.595C306.595 52.8789 304.6 53.0463 303.961 55.8525C306.512 57.6417 309.554 58.5996 312.671 58.5949Z" fill="#428DFC"/>
<path d="M312.511 49.7738C316.223 49.7738 319.233 46.7684 319.233 43.0612C319.233 39.3539 316.223 36.3486 312.511 36.3486C308.799 36.3486 305.789 39.3539 305.789 43.0612C305.789 46.7684 308.799 49.7738 312.511 49.7738Z" fill="#333333"/>
<path d="M415.751 197.989L523.721 189.758" stroke="#535461" stroke-miterlimit="10" stroke-dasharray="12.58 12.58"/>
<path d="M72.4644 110.519L149.288 148.052" stroke="#535461" stroke-miterlimit="10" stroke-dasharray="12.58 12.58"/>
<path d="M260.938 358.496L265.808 310.269" stroke="#535461" stroke-miterlimit="10" stroke-dasharray="12.58 12.58"/>
<path d="M205.998 53.3818L233.664 81.1329" stroke="#535461" stroke-miterlimit="10" stroke-dasharray="12.58 12.58"/>
<path opacity="0.1" d="M310.151 49.1523H314.842V52.8993C314.842 53.2069 314.782 53.5116 314.664 53.7959C314.547 54.0802 314.374 54.3387 314.157 54.5564C313.939 54.7741 313.681 54.9468 313.396 55.0646C313.112 55.1824 312.806 55.2431 312.498 55.2431C311.876 55.2431 311.279 54.9961 310.839 54.5566C310.399 54.117 310.151 53.5209 310.151 52.8993V49.1523Z" fill="black"/>
<path d="M310.595 48.9766H314.391C314.51 48.9776 314.623 49.0255 314.707 49.1099C314.791 49.1942 314.838 49.3082 314.838 49.427V52.7275C314.838 53.348 314.591 53.9432 314.151 54.382C313.712 54.8208 313.116 55.0673 312.495 55.0673C312.187 55.0678 311.881 55.0077 311.597 54.8903C311.312 54.773 311.053 54.6007 310.835 54.3834C310.617 54.1661 310.444 53.908 310.326 53.6238C310.208 53.3397 310.147 53.0351 310.147 52.7275V49.427C310.147 49.3082 310.194 49.1942 310.278 49.1099C310.362 49.0255 310.476 48.9776 310.595 48.9766Z" fill="#BE7C5E"/>
<path opacity="0.1" d="M310.151 50.9226C311.666 51.4803 313.331 51.4803 314.846 50.9226V50.3486H310.151V50.9226Z" fill="black"/>
<path d="M312.511 51.2337C316.223 51.2337 319.233 48.2284 319.233 44.5212C319.233 40.8139 316.223 37.8086 312.511 37.8086C308.799 37.8086 305.789 40.8139 305.789 44.5212C305.789 48.2284 308.799 51.2337 312.511 51.2337Z" fill="#BE7C5E"/>
<path d="M308.435 41.7499C308.481 41.4511 308.637 41.1805 308.874 40.9926C309.094 40.8961 309.336 40.8643 309.573 40.9009C311.433 41.0045 313.273 40.582 315.081 40.1395C316.115 39.8884 317.221 39.5815 317.876 38.7484C318.53 37.9153 317.672 35.3004 316.654 34.9935C315.984 34.7902 315.209 35.1689 314.575 34.8699C314.314 34.7015 314.075 34.5035 313.86 34.28C313.332 33.918 312.731 33.6745 312.1 33.5665C311.373 33.3871 310.591 33.2117 309.904 33.4987C309.369 33.7219 308.978 34.1923 308.471 34.4673C307.509 35.0015 306.332 34.7543 305.226 34.7503C304.855 34.7503 304.428 34.8261 304.26 35.1689C304.204 35.4155 304.204 35.6716 304.26 35.9183C304.292 36.7155 303.629 37.3413 303.063 37.9113C302.496 38.4813 301.985 39.3144 302.336 40.0319C302.468 40.3069 302.711 40.5142 302.851 40.7853C303.091 41.2556 302.971 41.8217 303.059 42.3399C303.147 42.7341 303.293 43.1129 303.494 43.4639C303.893 44.2611 305.976 48.5741 306.926 47.4779C307.386 46.9438 307.461 45.4012 307.645 44.6877C307.908 43.731 308.156 42.7385 308.435 41.7499Z" fill="#333333"/>
<path d="M307.724 45.4493C308.07 45.4493 308.351 44.9246 308.351 44.2774C308.351 43.6302 308.07 43.1055 307.724 43.1055C307.378 43.1055 307.098 43.6302 307.098 44.2774C307.098 44.9246 307.378 45.4493 307.724 45.4493Z" fill="#BE7C5E"/>
<g opacity="0.5">
<path opacity="0.5" d="M48.0117 260.251C73.56 260.251 94.271 239.569 94.271 214.056C94.271 188.543 73.56 167.861 48.0117 167.861C22.4634 167.861 1.75244 188.543 1.75244 214.056C1.75244 239.569 22.4634 260.251 48.0117 260.251Z" fill="url(#paint3_linear)"/>
</g>
<path d="M48.0992 258.979C73.1074 258.979 93.3805 238.734 93.3805 213.761C93.3805 188.788 73.1074 168.543 48.0992 168.543C23.091 168.543 2.81787 188.788 2.81787 213.761C2.81787 238.734 23.091 258.979 48.0992 258.979Z" fill="#F5F5F5"/>
<path d="M48.1394 259.159C56.9826 259.171 65.6338 256.584 73.0154 251.721C71.3469 242.617 64.9962 242.095 64.9962 242.095H29.9973C29.9973 242.095 24.0099 242.585 22.1338 250.964C29.7464 256.313 38.8312 259.176 48.1394 259.159Z" fill="#428DFC"/>
<path d="M47.6606 234.637C59.7326 234.637 69.5189 224.864 69.5189 212.809C69.5189 200.754 59.7326 190.981 47.6606 190.981C35.5885 190.981 25.8022 200.754 25.8022 212.809C25.8022 224.864 35.5885 234.637 47.6606 234.637Z" fill="#F55F44"/>
<path opacity="0.1" d="M40.6069 230.989H54.6137V242.178C54.6137 244.032 53.876 245.811 52.563 247.122C51.25 248.433 49.4692 249.17 47.6123 249.17C45.7554 249.17 43.9746 248.433 42.6616 247.122C41.3486 245.811 40.6109 244.032 40.6109 242.178V230.989H40.6069Z" fill="black"/>
<path d="M41.9445 230.472H53.2769C53.6315 230.472 53.9716 230.612 54.2224 230.863C54.4732 231.113 54.6141 231.453 54.6141 231.807V241.661C54.6141 243.515 53.8764 245.293 52.5634 246.604C51.2504 247.916 49.4696 248.652 47.6127 248.652C45.7558 248.652 43.975 247.916 42.662 246.604C41.349 245.293 40.6113 243.515 40.6113 241.661V231.807C40.6113 231.453 40.7522 231.113 41.003 230.863C41.2538 230.612 41.5939 230.472 41.9485 230.472H41.9445Z" fill="#FDA57D"/>
<path opacity="0.1" d="M40.6353 236.271C45.1489 237.958 50.1188 237.972 54.642 236.311V234.593H40.6353V236.271Z" fill="black"/>
<path d="M47.6605 237.208C58.747 237.208 67.7345 228.233 67.7345 217.162C67.7345 206.091 58.747 197.116 47.6605 197.116C36.5739 197.116 27.5864 206.091 27.5864 217.162C27.5864 228.233 36.5739 237.208 47.6605 237.208Z" fill="#FDA57D"/>
<path d="M47.6323 198.675C52.0943 198.675 55.7114 195.063 55.7114 190.607C55.7114 186.151 52.0943 182.539 47.6323 182.539C43.1704 182.539 39.5532 186.151 39.5532 190.607C39.5532 195.063 43.1704 198.675 47.6323 198.675Z" fill="#F55F44"/>
<path d="M47.6325 187.96C50.5624 187.96 52.9375 185.588 52.9375 182.663C52.9375 179.737 50.5624 177.365 47.6325 177.365C44.7027 177.365 42.3276 179.737 42.3276 182.663C42.3276 185.588 44.7027 187.96 47.6325 187.96Z" fill="#F55F44"/>
<path d="M44.1275 195.031C42.2321 194.182 40.7369 192.636 39.9527 190.715C39.1685 188.794 39.1555 186.645 39.9163 184.715C39.8604 184.826 39.8046 184.942 39.7527 185.058C39.3184 186.024 39.079 187.067 39.0483 188.126C39.0176 189.186 39.1961 190.241 39.5736 191.231C39.9511 192.221 40.5203 193.128 41.2485 193.898C41.9768 194.669 42.85 195.289 43.8182 195.722C44.7864 196.156 45.8306 196.395 46.8913 196.426C47.952 196.456 49.0083 196.278 50 195.901C50.9917 195.524 51.8993 194.956 52.6711 194.229C53.4428 193.501 54.0636 192.629 54.4978 191.663C54.5497 191.547 54.5976 191.431 54.6455 191.312C53.7077 193.163 52.0915 194.583 50.1327 195.276C48.1739 195.968 46.0232 195.881 44.1275 195.031Z" fill="#F55F44"/>
<path opacity="0.1" d="M33.3662 198.929C33.3662 198.929 41.8245 216.07 65.6986 206.104L60.1422 197.403L50.2948 193.871L33.3662 198.929Z" fill="black"/>
<path d="M33.3662 198.675C33.3662 198.675 41.8245 215.815 65.6986 205.849L60.1422 197.148L50.2948 193.616L33.3662 198.675Z" fill="#F55F44"/>
<path d="M39.8848 192.432C45.0899 192.025 50.3189 192.025 55.5241 192.432C55.5241 192.432 43.9722 193.504 39.8848 192.432Z" fill="#333333"/>
<path d="M48.8459 177.042C48.4446 177.029 48.043 177.06 47.6484 177.134H47.9558C49.2623 177.175 50.5073 177.698 51.4516 178.6C52.3959 179.503 52.973 180.722 53.072 182.024C53.171 183.325 52.7849 184.617 51.988 185.652C51.191 186.687 50.0393 187.391 48.7541 187.629C49.4503 187.635 50.1408 187.505 50.7863 187.244C51.4319 186.984 52.0198 186.6 52.5165 186.112C53.0132 185.625 53.4089 185.045 53.6811 184.406C53.9533 183.766 54.0967 183.079 54.1029 182.383C54.1092 181.688 53.9784 180.999 53.7178 180.354C53.4572 179.709 53.072 179.122 52.5842 178.626C52.0964 178.13 51.5156 177.735 50.8749 177.463C50.2341 177.191 49.5461 177.048 48.8499 177.042H48.8459Z" fill="#F55F44"/>
<path d="M27.5824 220.637C28.6142 220.637 29.4505 219.072 29.4505 217.141C29.4505 215.211 28.6142 213.646 27.5824 213.646C26.5507 213.646 25.7144 215.211 25.7144 217.141C25.7144 219.072 26.5507 220.637 27.5824 220.637Z" fill="#FDA57D"/>
<path d="M67.7343 220.637C68.766 220.637 69.6024 219.072 69.6024 217.141C69.6024 215.211 68.766 213.646 67.7343 213.646C66.7026 213.646 65.8662 215.211 65.8662 217.141C65.8662 219.072 66.7026 220.637 67.7343 220.637Z" fill="#FDA57D"/>
<path d="M32.1011 199.181L36.0169 197.164L36.899 200.397L34.5001 202.027L32.1011 199.181Z" fill="#F55F44"/>
<g opacity="0.5">
<path opacity="0.5" d="M92.8778 381.118C111.819 381.118 127.174 365.784 127.174 346.87C127.174 327.955 111.819 312.621 92.8778 312.621C73.9365 312.621 58.5815 327.955 58.5815 346.87C58.5815 365.784 73.9365 381.118 92.8778 381.118Z" fill="url(#paint4_linear)"/>
</g>
<path d="M92.8779 380.205C111.418 380.205 126.448 365.196 126.448 346.682C126.448 328.168 111.418 313.159 92.8779 313.159C74.3378 313.159 59.3081 328.168 59.3081 346.682C59.3081 365.196 74.3378 380.205 92.8779 380.205Z" fill="#F5F5F5"/>
<path d="M79.7851 346.98C79.7851 346.98 75.977 365.715 73.9014 364.667C73.9014 364.667 93.9355 381.95 111.626 364.667C111.626 364.667 108.509 351.473 104.01 346.98H79.7851Z" fill="#333333"/>
<path d="M92.9737 380.304C99.5334 380.316 105.951 378.398 111.427 374.791C110.19 368.043 105.484 367.656 105.484 367.656H79.5378C79.5378 367.656 75.0991 368.019 73.71 374.229C79.3493 378.191 86.0784 380.313 92.9737 380.304Z" fill="#428DFC"/>
<path d="M92.6182 360.804C100.837 360.804 107.499 354.151 107.499 345.944C107.499 337.737 100.837 331.084 92.6182 331.084C84.3997 331.084 77.7373 337.737 77.7373 345.944C77.7373 354.151 84.3997 360.804 92.6182 360.804Z" fill="#333333"/>
<path opacity="0.1" d="M87.3892 359.421H97.7675V367.716C97.7675 369.09 97.2208 370.408 96.2476 371.38C95.2744 372.352 93.9546 372.898 92.5783 372.898C91.2021 372.898 89.8822 372.352 88.909 371.38C87.9359 370.408 87.3892 369.09 87.3892 367.716V359.421Z" fill="black"/>
<path d="M88.3795 359.038H96.7819C97.0445 359.038 97.2963 359.142 97.4819 359.328C97.6676 359.513 97.7719 359.764 97.7719 360.027V367.333C97.7719 368.707 97.2251 370.025 96.252 370.997C95.2788 371.969 93.959 372.515 92.5827 372.515C91.2065 372.515 89.8866 371.969 88.9134 370.997C87.9403 370.025 87.3936 368.707 87.3936 367.333V360.023C87.3936 359.762 87.4974 359.511 87.6823 359.326C87.8672 359.142 88.118 359.038 88.3795 359.038Z" fill="#BE7C5E"/>
<path opacity="0.1" d="M87.4175 363.335C90.7619 364.584 94.4437 364.596 97.7958 363.367V362.092H87.4175V363.335Z" fill="black"/>
<path d="M92.6182 364.029C100.837 364.029 107.499 357.376 107.499 349.169C107.499 340.962 100.837 334.309 92.6182 334.309C84.3997 334.309 77.7373 340.962 77.7373 349.169C77.7373 357.376 84.3997 364.029 92.6182 364.029Z" fill="#BE7C5E"/>
<path d="M78.3921 343.524H106.773C106.773 343.524 104.35 332.08 93.6003 332.81C82.8508 333.539 78.3921 343.524 78.3921 343.524Z" fill="#333333"/>
<path d="M78.0448 351.126C78.8097 351.126 79.4299 349.966 79.4299 348.535C79.4299 347.104 78.8097 345.944 78.0448 345.944C77.2798 345.944 76.6597 347.104 76.6597 348.535C76.6597 349.966 77.2798 351.126 78.0448 351.126Z" fill="#BE7C5E"/>
<path d="M107.116 351.126C107.881 351.126 108.501 349.966 108.501 348.535C108.501 347.104 107.881 345.944 107.116 345.944C106.351 345.944 105.731 347.104 105.731 348.535C105.731 349.966 106.351 351.126 107.116 351.126Z" fill="#BE7C5E"/>
<path opacity="0.1" d="M78.3921 343.908H106.773C106.773 343.908 104.35 332.463 93.6003 333.197C82.8508 333.93 78.3921 343.908 78.3921 343.908Z" fill="black"/>
<g opacity="0.5">
<path opacity="0.5" d="M197.886 63.4748C210.778 63.4748 221.229 53.0382 221.229 40.1641C221.229 27.29 210.778 16.8535 197.886 16.8535C184.994 16.8535 174.543 27.29 174.543 40.1641C174.543 53.0382 184.994 63.4748 197.886 63.4748Z" fill="url(#paint5_linear)"/>
</g>
<path d="M197.93 62.829C210.549 62.829 220.779 52.6138 220.779 40.0126C220.779 27.4115 210.549 17.1963 197.93 17.1963C185.312 17.1963 175.082 27.4115 175.082 40.0126C175.082 52.6138 185.312 62.829 197.93 62.829Z" fill="#F5F5F5"/>
<path d="M197.95 62.9205C202.415 62.9282 206.784 61.6237 210.512 59.1696C209.669 54.5736 206.464 54.3105 206.464 54.3105H188.805C188.805 54.3105 185.783 54.5577 184.837 58.7829C188.676 61.4797 193.256 62.9249 197.95 62.9205Z" fill="#428DFC"/>
<path d="M197.711 50.5437C203.802 50.5437 208.74 45.6128 208.74 39.5301C208.74 33.4475 203.802 28.5166 197.711 28.5166C191.619 28.5166 186.682 33.4475 186.682 39.5301C186.682 45.6128 191.619 50.5437 197.711 50.5437Z" fill="#72351C"/>
<path opacity="0.1" d="M194.15 48.7061H201.22V54.3503C201.221 55.2863 200.85 56.1844 200.188 56.8474C199.526 57.5103 198.628 57.8839 197.691 57.886C196.754 57.886 195.856 57.5143 195.193 56.8528C194.531 56.1912 194.158 55.2939 194.158 54.3583V48.7061H194.15Z" fill="black"/>
<path d="M194.821 48.4434H200.537C200.716 48.4434 200.887 48.5143 201.014 48.6407C201.14 48.767 201.211 48.9383 201.211 49.117V54.0916C201.211 55.0272 200.839 55.9245 200.177 56.5861C199.514 57.2477 198.616 57.6193 197.679 57.6193C197.215 57.6193 196.755 57.5281 196.327 57.3508C195.898 57.1735 195.509 56.9137 195.181 56.5861C194.853 56.2585 194.592 55.8696 194.415 55.4416C194.237 55.0136 194.146 54.5549 194.146 54.0916V49.117C194.146 48.9383 194.217 48.767 194.344 48.6407C194.47 48.5143 194.642 48.4434 194.821 48.4434Z" fill="#FDA57D"/>
<path opacity="0.1" d="M194.158 51.3689C196.439 52.214 198.947 52.214 201.227 51.3689V50.5039H194.158V51.3689Z" fill="black"/>
<path d="M197.711 51.8427C203.306 51.8427 207.842 47.3133 207.842 41.7261C207.842 36.1388 203.306 31.6094 197.711 31.6094C192.116 31.6094 187.58 36.1388 187.58 41.7261C187.58 47.3133 192.116 51.8427 197.711 51.8427Z" fill="#FDA57D"/>
<path opacity="0.1" d="M190.498 32.5267C190.498 32.5267 194.765 41.1765 206.811 36.146L204.017 31.7614L199.04 29.9756L190.498 32.5267Z" fill="black"/>
<path d="M190.498 32.3986C190.498 32.3986 194.765 41.0484 206.811 36.0219L204.017 31.6372L199.048 29.8555L190.498 32.3986Z" fill="#72351C"/>
<path d="M190.458 31.8126C190.746 30.9236 191.244 30.1169 191.911 29.4609C193.907 27.4917 197.168 27.0692 198.844 24.833C199.016 25.1345 199.061 25.4916 198.97 25.8263C198.879 26.161 198.658 26.4459 198.357 26.6188C198.32 26.6418 198.282 26.6618 198.242 26.6786C199.838 26.6786 201.706 26.5271 202.612 25.2077C202.836 25.7298 202.908 26.3045 202.818 26.8654C202.728 27.4262 202.481 27.9502 202.105 28.3766C203.531 28.4404 205.047 29.4011 205.139 30.8241C205.14 31.3005 205.02 31.7694 204.791 32.1874C204.562 32.6054 204.232 32.9591 203.83 33.2157C203.02 33.7132 202.119 34.0452 201.179 34.1923C198.481 34.7982 188.694 37.2935 190.458 31.8126Z" fill="#72351C"/>
<path d="M207.842 41.8145H207.566L202.341 46.4662C197.304 44.1104 193.611 46.4662 193.611 46.4662L188.131 42.0098L187.58 42.0815C187.655 44.7373 188.772 47.2572 190.692 49.097C192.611 50.9368 195.178 51.9486 197.839 51.9141C200.499 51.8795 203.039 50.8013 204.91 48.9124C206.781 47.0234 207.832 44.4753 207.838 41.8184L207.842 41.8145ZM197.699 48.232C195.727 48.232 194.13 47.8334 194.13 47.3392C194.13 46.8449 195.727 46.4503 197.699 46.4503C199.671 46.4503 201.263 46.8489 201.263 47.3392C201.263 47.8295 199.667 48.232 197.695 48.232H197.699Z" fill="#72351C"/>
<path d="M187.58 43.4838C188.1 43.4838 188.522 42.6932 188.522 41.718C188.522 40.7427 188.1 39.9521 187.58 39.9521C187.059 39.9521 186.638 40.7427 186.638 41.718C186.638 42.6932 187.059 43.4838 187.58 43.4838Z" fill="#FDA57D"/>
<path d="M207.841 43.4838C208.362 43.4838 208.783 42.6932 208.783 41.718C208.783 40.7427 208.362 39.9521 207.841 39.9521C207.321 39.9521 206.899 40.7427 206.899 41.718C206.899 42.6932 207.321 43.4838 207.841 43.4838Z" fill="#FDA57D"/>
<g opacity="0.5">
<path opacity="0.5" d="M263.996 380.719C270.978 380.719 276.638 375.067 276.638 368.095C276.638 361.123 270.978 355.471 263.996 355.471C257.014 355.471 251.354 361.123 251.354 368.095C251.354 375.067 257.014 380.719 263.996 380.719Z" fill="url(#paint6_linear)"/>
</g>
<path d="M264.02 380.372C270.854 380.372 276.394 374.84 276.394 368.015C276.394 361.191 270.854 355.658 264.02 355.658C257.186 355.658 251.646 361.191 251.646 368.015C251.646 374.84 257.186 380.372 264.02 380.372Z" fill="#F5F5F5"/>
<path d="M264.032 380.42C266.445 380.421 268.805 379.714 270.818 378.387C270.359 375.899 268.627 375.756 268.627 375.756H259.059C259.059 375.756 257.422 375.891 256.911 378.179C258.995 379.645 261.484 380.427 264.032 380.42Z" fill="#428DFC"/>
<path d="M263.9 373.719C267.198 373.719 269.872 371.05 269.872 367.756C269.872 364.463 267.198 361.793 263.9 361.793C260.602 361.793 257.929 364.463 257.929 367.756C257.929 371.05 260.602 373.719 263.9 373.719Z" fill="#333333"/>
<path opacity="0.1" d="M261.972 372.723H265.8V375.78C265.801 376.031 265.752 376.279 265.656 376.511C265.56 376.743 265.419 376.954 265.241 377.131C265.064 377.309 264.853 377.449 264.62 377.545C264.388 377.641 264.139 377.69 263.888 377.689C263.637 377.69 263.388 377.641 263.156 377.545C262.924 377.449 262.713 377.309 262.535 377.131C262.357 376.954 262.217 376.743 262.121 376.511C262.025 376.279 261.976 376.031 261.976 375.78V372.723H261.972Z" fill="black"/>
<path d="M262.34 372.583H265.445C265.542 372.583 265.634 372.621 265.702 372.689C265.77 372.757 265.808 372.85 265.808 372.946V375.64C265.809 375.891 265.76 376.14 265.664 376.372C265.568 376.604 265.427 376.814 265.25 376.992C265.072 377.169 264.861 377.31 264.629 377.405C264.397 377.501 264.148 377.55 263.896 377.55C263.645 377.55 263.396 377.501 263.164 377.406C262.931 377.31 262.72 377.169 262.542 376.992C262.364 376.815 262.223 376.604 262.126 376.372C262.03 376.14 261.98 375.891 261.98 375.64V372.946C261.98 372.849 262.019 372.755 262.088 372.687C262.157 372.618 262.25 372.579 262.348 372.579L262.34 372.583Z" fill="#FDB797"/>
<path opacity="0.1" d="M261.98 374.166C263.215 374.624 264.574 374.624 265.808 374.166V373.691H261.98V374.166Z" fill="black"/>
<path d="M263.901 374.421C266.93 374.421 269.385 371.968 269.385 368.944C269.385 365.919 266.93 363.467 263.901 363.467C260.872 363.467 258.416 365.919 258.416 368.944C258.416 371.968 260.872 374.421 263.901 374.421Z" fill="#FDB797"/>
<path opacity="0.1" d="M259.997 363.962C259.997 363.962 262.308 368.645 268.83 365.923L267.313 363.531L264.619 362.566L259.997 363.962Z" fill="black"/>
<path d="M259.997 363.893C259.997 363.893 262.308 368.577 268.83 365.854L267.313 363.463L264.619 362.498L259.997 363.893Z" fill="#333333"/>
<path d="M259.973 363.575C260.133 363.092 260.407 362.655 260.771 362.299C261.849 361.235 263.621 361.012 264.527 359.796C264.573 359.876 264.603 359.965 264.615 360.058C264.627 360.15 264.62 360.243 264.596 360.333C264.571 360.422 264.53 360.506 264.472 360.58C264.415 360.653 264.344 360.715 264.264 360.761L264.2 360.796C265.074 360.796 266.076 360.713 266.567 359.999C266.689 360.281 266.728 360.592 266.68 360.895C266.632 361.199 266.498 361.482 266.295 361.713C267.066 361.749 267.892 362.271 267.936 363.037C267.936 363.294 267.871 363.548 267.747 363.773C267.622 363.999 267.443 364.19 267.225 364.328C266.788 364.601 266.301 364.784 265.792 364.866C264.315 365.193 259.019 366.544 259.973 363.575Z" fill="#333333"/>
<path d="M269.385 369.897C269.667 369.897 269.896 369.468 269.896 368.94C269.896 368.412 269.667 367.983 269.385 367.983C269.103 367.983 268.874 368.412 268.874 368.94C268.874 369.468 269.103 369.897 269.385 369.897Z" fill="#FDB797"/>
<g opacity="0.5">
<path opacity="0.5" d="M55.5279 123.306C67.3023 123.306 76.8474 113.774 76.8474 102.016C76.8474 90.2583 67.3023 80.7266 55.5279 80.7266C43.7535 80.7266 34.2085 90.2583 34.2085 102.016C34.2085 113.774 43.7535 123.306 55.5279 123.306Z" fill="url(#paint7_linear)"/>
</g>
<path d="M55.528 122.739C67.0533 122.739 76.3964 113.409 76.3964 101.9C76.3964 90.3906 67.0533 81.0605 55.528 81.0605C44.0028 81.0605 34.6597 90.3906 34.6597 101.9C34.6597 113.409 44.0028 122.739 55.528 122.739Z" fill="#F5F5F5"/>
<path d="M55.588 122.803C59.6662 122.811 63.6563 121.618 67.06 119.375C66.2896 115.182 63.3638 114.938 63.3638 114.938H47.2255C47.2255 114.938 44.4673 115.166 43.6011 119.028C47.11 121.493 51.2977 122.812 55.588 122.803Z" fill="#428DFC"/>
<path opacity="0.1" d="M52.1152 109.82H58.5697V114.978C58.5697 115.832 58.2299 116.652 57.6251 117.256C57.0202 117.86 56.1999 118.199 55.3445 118.199C54.9206 118.2 54.5008 118.117 54.109 117.955C53.7172 117.793 53.3612 117.556 53.0613 117.257C52.7614 116.958 52.5235 116.603 52.3611 116.212C52.1988 115.821 52.1152 115.402 52.1152 114.978V109.82Z" fill="black"/>
<path d="M52.73 109.581H57.955C58.0361 109.581 58.1164 109.597 58.1912 109.628C58.2661 109.659 58.334 109.705 58.3911 109.762C58.4483 109.82 58.4935 109.888 58.5241 109.963C58.5548 110.038 58.5703 110.118 58.5698 110.199V114.739C58.5698 115.593 58.23 116.412 57.6251 117.016C57.0202 117.62 56.1999 117.96 55.3445 117.96C54.9205 117.961 54.5004 117.878 54.1084 117.717C53.7164 117.555 53.3602 117.318 53.0601 117.019C52.7601 116.72 52.5222 116.364 52.3601 115.973C52.1979 115.582 52.1147 115.162 52.1152 114.739V110.199C52.1147 110.118 52.1302 110.038 52.1609 109.963C52.1915 109.888 52.2367 109.82 52.2939 109.762C52.351 109.705 52.419 109.659 52.4938 109.628C52.5686 109.597 52.6489 109.581 52.73 109.581Z" fill="#FDB797"/>
<path opacity="0.1" d="M52.127 112.256C54.2092 113.027 56.4993 113.027 58.5815 112.256V111.459H52.127V112.256Z" fill="black"/>
<path d="M55.3645 112.687C60.4746 112.687 64.6171 108.55 64.6171 103.447C64.6171 98.3438 60.4746 94.207 55.3645 94.207C50.2544 94.207 46.1118 98.3438 46.1118 103.447C46.1118 108.55 50.2544 112.687 55.3645 112.687Z" fill="#FDB797"/>
<path d="M46.307 104.662C46.7832 104.662 47.1692 103.941 47.1692 103.052C47.1692 102.162 46.7832 101.441 46.307 101.441C45.8308 101.441 45.4448 102.162 45.4448 103.052C45.4448 103.941 45.8308 104.662 46.307 104.662Z" fill="#FDB797"/>
<path d="M64.3773 104.662C64.8535 104.662 65.2395 103.941 65.2395 103.052C65.2395 102.162 64.8535 101.441 64.3773 101.441C63.9012 101.441 63.5151 102.162 63.5151 103.052C63.5151 103.941 63.9012 104.662 64.3773 104.662Z" fill="#FDB797"/>
<path d="M52.8854 103.494H50.5264C50.0855 103.494 49.728 103.851 49.728 104.291V104.674C49.728 105.114 50.0855 105.471 50.5264 105.471H52.8854C53.3263 105.471 53.6838 105.114 53.6838 104.674V104.291C53.6838 103.851 53.3263 103.494 52.8854 103.494Z" stroke="#333333" stroke-width="2" stroke-miterlimit="10"/>
<path d="M60.2062 103.491H57.8472C57.4063 103.491 57.0488 103.848 57.0488 104.288V104.671C57.0488 105.111 57.4063 105.468 57.8472 105.468H60.2062C60.6471 105.468 61.0046 105.111 61.0046 104.671V104.288C61.0046 103.848 60.6471 103.491 60.2062 103.491Z" stroke="#333333" stroke-width="2" stroke-miterlimit="10"/>
<path d="M53.5361 103.682C53.5361 103.682 54.7895 103.004 57.1286 103.682" stroke="#333333" stroke-width="2" stroke-miterlimit="10"/>
<path d="M61.7632 96.7539L64.0344 102.02C64.0344 102.02 66.8086 98.5237 61.7632 96.7539Z" fill="#858585"/>
<path d="M61.0044 104.479L64.3933 101.458" stroke="#333333" stroke-width="2" stroke-linecap="round" stroke-linejoin="round"/>
<path d="M48.9736 96.7539L46.7024 102.02C46.7024 102.02 43.9282 98.5237 48.9736 96.7539Z" fill="#858585"/>
<path d="M49.7282 104.479L46.2954 101.458" stroke="#333333" stroke-width="2" stroke-linecap="round" stroke-linejoin="round"/>
<g opacity="0.5">
<path opacity="0.5" d="M539.768 208.348C550.72 208.348 559.599 199.482 559.599 188.545C559.599 177.608 550.72 168.742 539.768 168.742C528.816 168.742 519.938 177.608 519.938 188.545C519.938 199.482 528.816 208.348 539.768 208.348Z" fill="url(#paint8_linear)"/>
</g>
<path d="M539.808 207.803C550.526 207.803 559.215 199.126 559.215 188.422C559.215 177.719 550.526 169.042 539.808 169.042C529.089 169.042 520.4 177.719 520.4 188.422C520.4 199.126 529.089 207.803 539.808 207.803Z" fill="#F5F5F5"/>
<path d="M550.485 190.331C550.485 196.781 545.847 199.954 539.824 199.954C533.8 199.954 528.675 196.765 528.675 190.331C528.675 183.898 533.557 178.656 539.58 178.656C545.603 178.656 550.485 183.878 550.485 190.331Z" fill="#333333"/>
<path d="M539.823 207.878C543.616 207.885 547.327 206.776 550.493 204.689C549.779 200.787 547.056 200.56 547.056 200.56H532.048C532.048 200.56 529.481 200.771 528.679 204.362C531.94 206.657 535.834 207.885 539.823 207.878Z" fill="#428DFC"/>
<path opacity="0.1" d="M536.594 195.801H542.581V200.584C542.582 200.978 542.506 201.367 542.356 201.731C542.206 202.095 541.986 202.426 541.708 202.705C541.43 202.983 541.099 203.205 540.735 203.356C540.372 203.507 539.982 203.585 539.588 203.586C538.792 203.586 538.028 203.27 537.465 202.708C536.902 202.146 536.586 201.383 536.586 200.588V195.805L536.594 195.801Z" fill="black"/>
<path d="M537.165 195.585H542.022C542.098 195.585 542.172 195.599 542.242 195.627C542.312 195.656 542.375 195.698 542.429 195.751C542.482 195.804 542.524 195.867 542.553 195.936C542.582 196.005 542.597 196.08 542.597 196.155V200.38C542.597 201.175 542.281 201.938 541.718 202.5C541.155 203.062 540.392 203.378 539.596 203.378C538.799 203.378 538.036 203.062 537.473 202.5C536.91 201.938 536.594 201.175 536.594 200.38V196.155C536.593 196.08 536.608 196.005 536.636 195.935C536.665 195.865 536.707 195.801 536.761 195.748C536.814 195.695 536.878 195.652 536.948 195.624C537.018 195.595 537.093 195.581 537.169 195.581L537.165 195.585Z" fill="#FDA57D"/>
<path opacity="0.1" d="M536.606 198.068C538.536 198.786 540.659 198.793 542.594 198.088V197.351H536.606V198.068Z" fill="black"/>
<path d="M539.62 198.471C544.373 198.471 548.226 194.624 548.226 189.877C548.226 185.131 544.373 181.283 539.62 181.283C534.867 181.283 531.014 185.131 531.014 189.877C531.014 194.624 534.867 198.471 539.62 198.471Z" fill="#FDA57D"/>
<path opacity="0.1" d="M529.692 190.439C529.692 190.439 535.053 189.789 539.105 184.604C539.105 184.604 544.462 190.495 548.198 189.845C548.198 189.845 550.361 187.573 548.198 185.305C546.034 183.037 544.362 180.171 541.496 180.57C538.63 180.968 535.109 181.108 533.592 182.459C532.075 183.81 529.692 190.439 529.692 190.439Z" fill="black"/>
<path d="M529.692 190.332C529.692 190.332 535.053 189.682 539.105 184.496C539.105 184.496 544.462 190.387 548.198 189.738C548.198 189.738 550.361 187.466 548.198 185.198C546.034 182.929 544.354 180.063 541.488 180.442C538.622 180.821 535.101 180.972 533.592 182.34C532.083 183.707 529.692 190.332 529.692 190.332Z" fill="#333333"/>
<path d="M531.009 191.368C531.452 191.368 531.812 190.697 531.812 189.869C531.812 189.041 531.452 188.37 531.009 188.37C530.566 188.37 530.207 189.041 530.207 189.869C530.207 190.697 530.566 191.368 531.009 191.368Z" fill="#FDA57D"/>
<path d="M548.222 191.368C548.665 191.368 549.025 190.697 549.025 189.869C549.025 189.041 548.665 188.37 548.222 188.37C547.779 188.37 547.42 189.041 547.42 189.869C547.42 190.697 547.779 191.368 548.222 191.368Z" fill="#FDA57D"/>
<defs>
<linearGradient id="paint0_linear" x1="427.734" y1="120.679" x2="427.734" y2="56.9298" gradientUnits="userSpaceOnUse">
<stop stop-color="#808080" stop-opacity="0.25"/>
<stop offset="0.54" stop-color="#808080" stop-opacity="0.12"/>
<stop offset="1" stop-color="#808080" stop-opacity="0.1"/>
</linearGradient>
<linearGradient id="paint1_linear" x1="105942" y1="3970.84" x2="105942" y2="23242.4" gradientUnits="userSpaceOnUse">
<stop stop-color="#808080" stop-opacity="0.25"/>
<stop offset="0.54" stop-color="#808080" stop-opacity="0.12"/>
<stop offset="1" stop-color="#808080" stop-opacity="0.1"/>
</linearGradient>
<linearGradient id="paint2_linear" x1="24563.2" y1="25838.4" x2="24563.2" y2="28240.3" gradientUnits="userSpaceOnUse">
<stop stop-color="#808080" stop-opacity="0.25"/>
<stop offset="0.54" stop-color="#808080" stop-opacity="0.12"/>
<stop offset="1" stop-color="#808080" stop-opacity="0.1"/>
</linearGradient>
<linearGradient id="paint3_linear" x1="11129.9" y1="30583.4" x2="11129.9" y2="51997.4" gradientUnits="userSpaceOnUse">
<stop stop-color="#808080" stop-opacity="0.25"/>
<stop offset="0.54" stop-color="#808080" stop-opacity="0.12"/>
<stop offset="1" stop-color="#808080" stop-opacity="0.1"/>
</linearGradient>
<linearGradient id="paint4_linear" x1="16018.7" y1="2093.54" x2="16018.7" y2="13863.4" gradientUnits="userSpaceOnUse">
<stop stop-color="#808080" stop-opacity="0.25"/>
<stop offset="0.54" stop-color="#808080" stop-opacity="0.12"/>
<stop offset="1" stop-color="#808080" stop-opacity="0.1"/>
</linearGradient>
<linearGradient id="paint5_linear" x1="23319.3" y1="38380.1" x2="23319.3" y2="43832.9" gradientUnits="userSpaceOnUse">
<stop stop-color="#808080" stop-opacity="0.25"/>
<stop offset="0.54" stop-color="#808080" stop-opacity="0.12"/>
<stop offset="1" stop-color="#808080" stop-opacity="0.1"/>
</linearGradient>
<linearGradient id="paint6_linear" x1="16972.9" y1="1036.91" x2="16972.9" y2="2635.85" gradientUnits="userSpaceOnUse">
<stop stop-color="#808080" stop-opacity="0.25"/>
<stop offset="0.54" stop-color="#808080" stop-opacity="0.12"/>
<stop offset="1" stop-color="#808080" stop-opacity="0.1"/>
</linearGradient>
<linearGradient id="paint7_linear" x1="5965.7" y1="28726.8" x2="5965.7" y2="33275.2" gradientUnits="userSpaceOnUse">
<stop stop-color="#808080" stop-opacity="0.25"/>
<stop offset="0.54" stop-color="#808080" stop-opacity="0.12"/>
<stop offset="1" stop-color="#808080" stop-opacity="0.1"/>
</linearGradient>
<linearGradient id="paint8_linear" x1="54151.2" y1="18364.4" x2="54151.2" y2="22299.2" gradientUnits="userSpaceOnUse">
<stop stop-color="#808080" stop-opacity="0.25"/>
<stop offset="0.54" stop-color="#808080" stop-opacity="0.12"/>
<stop offset="1" stop-color="#808080" stop-opacity="0.1"/>
</linearGradient>
</defs>
</svg>
